<?xml version="1.0" encoding="UTF-8" standalone="no"?>
<!-- Created with Inkscape (http://www.inkscape.org/) -->

<svg
   width="1024"
   height="1024"
   viewBox="0 0 270.93332 270.93334"
   version="1.1"
   id="svg37918"
   inkscape:version="1.1 (c68e22c387, 2021-05-23)"
   sodipodi:docname="plane-2.svg"
   inkscape:export-filename="D:\Repos\Save the bit\Save the bit\Assets\2D\Planes\plane-2.png"
   inkscape:export-xdpi="96"
   inkscape:export-ydpi="96"
   xmlns:inkscape="http://www.inkscape.org/namespaces/inkscape"
   xmlns:sodipodi="http://sodipodi.sourceforge.net/DTD/sodipodi-0.dtd"
   xmlns="http://www.w3.org/2000/svg"
   xmlns:svg="http://www.w3.org/2000/svg">
  <sodipodi:namedview
     id="namedview37920"
     pagecolor="#505050"
     bordercolor="#eeeeee"
     borderopacity="1"
     inkscape:pageshadow="0"
     inkscape:pageopacity="0"
     inkscape:pagecheckerboard="0"
     inkscape:document-units="px"
     showgrid="false"
     units="px"
     inkscape:zoom="0.5099"
     inkscape:cx="510.88449"
     inkscape:cy="510.88449"
     inkscape:window-width="1920"
     inkscape:window-height="1057"
     inkscape:window-x="1912"
     inkscape:window-y="-8"
     inkscape:window-maximized="1"
     inkscape:current-layer="layer1"
     width="1024px" />
  <defs
     id="defs37915">
    <clipPath
       clipPathUnits="userSpaceOnUse"
       id="clipPath47768">
      <g
         id="g47774">
        <path
           style="fill:#b2afa6;fill-opacity:1;stroke:none;stroke-width:0.264583px;stroke-linecap:butt;stroke-linejoin:miter;stroke-opacity:1"
           d="m 78.292827,36.681275 c 0,0 50.138133,42.794272 52.753983,52.556773 2.61586,9.762501 -1.75426,12.343492 -1.75426,12.343492 L 78.292827,81.842627 Z"
           id="path47770"
           sodipodi:nodetypes="czccc" />
        <path
           style="fill:#b2afa6;fill-opacity:1;stroke:none;stroke-width:0.264583px;stroke-linecap:butt;stroke-linejoin:miter;stroke-opacity:1"
           d="m 57.137923,36.681275 c 0,0 -50.138137,42.794272 -52.753987,52.556773 -2.61586,9.762501 1.75426,12.343492 1.75426,12.343492 L 57.137923,81.842627 Z"
           id="path47772"
           sodipodi:nodetypes="czccc" />
      </g>
    </clipPath>
    <clipPath
       clipPathUnits="userSpaceOnUse"
       id="clipPath48611">
      <path
         style="fill:#78828e;fill-opacity:1;stroke:#616973;stroke-width:1.19062;stroke-linecap:butt;stroke-linejoin:miter;stroke-miterlimit:4;stroke-dasharray:none;stroke-opacity:1"
         d="m 67.733332,19.326749 c -5.252598,0 -10.583333,6.333506 -10.583333,17.157176 v 44.372582 c 0,7.776022 8.995834,19.524053 8.995834,19.524053 l 3.174999,-6e-5 c 0,0 8.995834,-11.934039 8.995834,-19.523993 V 36.48398 c 0,-9.939022 -5.330738,-17.157231 -10.583334,-17.157231 z"
         id="path48613"
         sodipodi:nodetypes="zzzcczzz" />
    </clipPath>
    <clipPath
       clipPathUnits="userSpaceOnUse"
       id="clipPath51811">
      <path
         style="fill:#b2afa6;fill-opacity:1;stroke:none;stroke-width:0.264583px;stroke-linecap:butt;stroke-linejoin:miter;stroke-opacity:1"
         d="m 66.145833,100.38056 c 0,0 -24.677561,13.94531 -27.78125,20.00486 -3.10369,6.05955 0,6.61458 0,6.61458 0,0 26.342474,-11.43423 27.78125,-11.43423 h 3.174999 c 1.691492,0 27.78125,11.43423 27.78125,11.43423 0,0 3.103688,-0.55502 0,-6.61458 -3.103689,-6.05956 -27.78125,-20.00492 -27.78125,-20.00492 z"
         id="path51813"
         sodipodi:nodetypes="czczzczcc" />
    </clipPath>
  </defs>
  <g
     inkscape:label="Layer 1"
     inkscape:groupmode="layer"
     id="layer1">
    <path
       style="fill:#78828e;fill-opacity:1;stroke:#616973;stroke-width:2.4471;stroke-linecap:butt;stroke-linejoin:miter;stroke-miterlimit:4;stroke-dasharray:none;stroke-opacity:1"
       d="m 135.46777,19.954991 c -10.79577,0 -21.75213,13.017377 -21.75213,35.263474 v 91.199815 c 0,15.98221 18.48931,40.12817 18.48931,40.12817 l 6.52564,-1.3e-4 c 0,0 18.48931,-24.52826 18.48931,-40.12804 V 55.218578 c 0,-20.427865 -10.95637,-35.263587 -21.75213,-35.263587 z"
       id="path38012"
       sodipodi:nodetypes="zzzcczzz" />
    <g
       id="g47760"
       transform="matrix(2.0553192,0,0,2.0553192,-3.7458517,-19.767648)">
      <path
         style="fill:#b2afa6;fill-opacity:1;stroke:none;stroke-width:0.264583px;stroke-linecap:butt;stroke-linejoin:miter;stroke-opacity:1"
         d="m 78.292827,36.681275 c 0,0 50.138133,42.794272 52.753983,52.556773 2.61586,9.762501 -1.75426,12.343492 -1.75426,12.343492 L 78.292827,81.842627 Z"
         id="path43204"
         sodipodi:nodetypes="czccc" />
      <path
         style="fill:#b2afa6;fill-opacity:1;stroke:none;stroke-width:0.264583px;stroke-linecap:butt;stroke-linejoin:miter;stroke-opacity:1"
         d="m 57.137923,36.681275 c 0,0 -50.138137,42.794272 -52.753987,52.556773 -2.61586,9.762501 1.75426,12.343492 1.75426,12.343492 L 57.137923,81.842627 Z"
         id="path43537"
         sodipodi:nodetypes="czccc" />
    </g>
    <path
       style="fill:#b2afa6;fill-opacity:1;stroke:none;stroke-width:0.543802px;stroke-linecap:butt;stroke-linejoin:miter;stroke-opacity:1"
       d="m 132.20495,186.54645 c 0,0 -50.720263,28.66206 -57.099337,41.11637 -6.379074,12.45431 0,13.59507 0,13.59507 0,0 54.142197,-23.50099 57.099337,-23.50099 h 6.52564 c 3.47655,0 57.09933,23.50099 57.09933,23.50099 0,0 6.37907,-1.14074 0,-13.59507 -6.37907,-12.45433 -57.09933,-41.1165 -57.09933,-41.1165 z"
       id="path43654"
       sodipodi:nodetypes="czczzczcc" />
    <g
       id="g47740"
       clip-path="url(#clipPath47768)"
       transform="matrix(2.0553192,0,0,2.0553192,-3.7458517,-19.767648)">
      <g
         id="g47726">
        <path
           style="fill:none;stroke:#616973;stroke-width:0.964935;stroke-linecap:butt;stroke-linejoin:miter;stroke-miterlimit:4;stroke-dasharray:none;stroke-opacity:1"
           d="m 49.105576,42.444143 v 22.241115 h 2.366534 v 1.380477 h 6.231123 -6.231123 l 0.0095,1.047677 -2.589013,-0.0026 v 6.646207 l -34.29894,17.157369"
           id="path45780"
           sodipodi:nodetypes="cccccccccc" />
        <rect
           style="fill:#fad54a;fill-opacity:1;stroke:#616973;stroke-width:1.11608;stroke-linecap:round;stroke-miterlimit:4;stroke-dasharray:none;stroke-opacity:1"
           id="rect47624"
           width="8.2828684"
           height="30.072517"
           x="7.9870515"
           y="72.378677" />
      </g>
      <g
         id="g47732"
         transform="matrix(-1,0,0,1,135.1422,0)">
        <path
           style="fill:none;stroke:#616973;stroke-width:0.965;stroke-linecap:butt;stroke-linejoin:miter;stroke-miterlimit:4;stroke-dasharray:none;stroke-opacity:1"
           d="m 49.105576,42.444143 v 22.241115 h 2.366534 v 1.380477 h 6.231123 -6.231123 l 0.0095,1.047677 -2.589013,-0.0026 v 6.646207 l -34.29894,17.157369"
           id="path47728"
           sodipodi:nodetypes="cccccccccc" />
        <rect
           style="fill:#fad54a;fill-opacity:1;stroke:#616973;stroke-width:1.11608;stroke-linecap:round;stroke-miterlimit:4;stroke-dasharray:none;stroke-opacity:1"
           id="rect47730"
           width="8.2828684"
           height="30.072517"
           x="7.9870515"
           y="72.378677" />
      </g>
    </g>
    <rect
       style="fill:#fad54a;fill-opacity:1;stroke:#616973;stroke-width:1.19062;stroke-linecap:round;stroke-miterlimit:4;stroke-dasharray:none;stroke-opacity:1"
       id="rect48527"
       width="29.581673"
       height="9.8605576"
       x="53.049801"
       y="78.292831"
       clip-path="url(#clipPath48611)"
       transform="matrix(2.0553192,0,0,2.0553192,-3.7458517,-19.767648)" />
    <g
       id="g51783"
       clip-path="url(#clipPath51811)"
       transform="matrix(2.0553192,0,0,2.0553192,-3.7458517,-19.767648)">
      <path
         style="fill:none;stroke:#616973;stroke-width:0.964935;stroke-linecap:butt;stroke-linejoin:miter;stroke-miterlimit:4;stroke-dasharray:none;stroke-opacity:1"
         d="m 41.765079,126.48056 v -5.43853 l 25.240332,-12.13209"
         id="path48672" />
      <path
         style="fill:none;stroke:#616973;stroke-width:0.964935;stroke-linecap:butt;stroke-linejoin:miter;stroke-miterlimit:4;stroke-dasharray:none;stroke-opacity:1"
         d="m 93.651279,126.48056 v -5.43853 L 68.410947,108.90994"
         id="path51779" />
    </g>
    <path
       style="fill:#78828e;fill-opacity:1;stroke:none;stroke-width:0.660664px;stroke-linecap:butt;stroke-linejoin:miter;stroke-opacity:1"
       d="m 132.20495,182.06327 v 41.41064 c 0,6.01562 6.52564,5.95024 6.52564,0 v -41.41082 z"
       id="path43844"
       sodipodi:nodetypes="csscc" />
    <ellipse
       style="fill:#1e1e1e;fill-opacity:1;stroke:#000000;stroke-width:1.98325;stroke-linecap:round;stroke-miterlimit:4;stroke-dasharray:none;stroke-opacity:1"
       id="path51870"
       cx="134.87764"
       cy="65.352043"
       rx="15.402611"
       ry="24.921947" />
    <ellipse
       style="fill:#ffffff;fill-opacity:1;stroke:none;stroke-width:1.98325;stroke-linecap:round;stroke-miterlimit:4;stroke-dasharray:none;stroke-opacity:1"
       id="path55110"
       cx="106.7544"
       cy="108.51776"
       rx="2.4319911"
       ry="4.053319"
       transform="rotate(-25.016893)" />
  </g>
</svg>
