<?xml version="1.0" encoding="UTF-8" standalone="no"?>
<!-- Created with Inkscape (http://www.inkscape.org/) -->

<svg
   width="1024"
   height="1024"
   viewBox="0 0 270.93333 270.93334"
   version="1.1"
   id="svg55475"
   inkscape:version="1.1 (c68e22c387, 2021-05-23)"
   sodipodi:docname="plane-3.svg"
   inkscape:export-filename="D:\Repos\Save the bit\Save the bit\Assets\2D\Planes\plane-3.png"
   inkscape:export-xdpi="96"
   inkscape:export-ydpi="96"
   xmlns:inkscape="http://www.inkscape.org/namespaces/inkscape"
   xmlns:sodipodi="http://sodipodi.sourceforge.net/DTD/sodipodi-0.dtd"
   xmlns="http://www.w3.org/2000/svg"
   xmlns:svg="http://www.w3.org/2000/svg">
  <sodipodi:namedview
     id="namedview55477"
     pagecolor="#505050"
     bordercolor="#eeeeee"
     borderopacity="1"
     inkscape:pageshadow="0"
     inkscape:pageopacity="0"
     inkscape:pagecheckerboard="0"
     inkscape:document-units="px"
     showgrid="false"
     units="px"
     inkscape:zoom="0.67081229"
     inkscape:cx="344.35863"
     inkscape:cy="446.47363"
     inkscape:window-width="1920"
     inkscape:window-height="1057"
     inkscape:window-x="1912"
     inkscape:window-y="-8"
     inkscape:window-maximized="1"
     inkscape:current-layer="layer1" />
  <defs
     id="defs55472">
    <clipPath
       clipPathUnits="userSpaceOnUse"
       id="clipPath64998">
      <path
         style="fill:#b2afa6;fill-opacity:1;stroke:none;stroke-width:0.264583px;stroke-linecap:butt;stroke-linejoin:miter;stroke-opacity:1"
         d="m 152.13924,90.267304 c 0,0 95.65137,44.207806 101.65856,54.760016 6.00719,10.55221 5.14292,26.77427 -1.11559,26.77427 -6.25851,0 -100.49504,-15.89068 -100.49504,-15.89068"
         id="path65000"
         sodipodi:nodetypes="czzc" />
    </clipPath>
    <clipPath
       clipPathUnits="userSpaceOnUse"
       id="clipPath65681">
      <path
         style="fill:#78828e;fill-opacity:1;stroke:none;stroke-width:0.210331px;stroke-linecap:butt;stroke-linejoin:miter;stroke-opacity:1"
         d="m 135.46667,39.647617 c 0,0 -16.71383,42.493158 -16.71383,51.614078 v 88.670345 c 0,7.12224 16.71383,62.20158 16.71383,62.20158 0,0 16.71382,-56.61351 16.71382,-62.20158 0,-5.58807 0,-88.670345 0,-88.670345 0,-9.047739 -16.71382,-51.614078 -16.71382,-51.614078 z"
         id="path65683"
         sodipodi:nodetypes="czzczzc" />
    </clipPath>
  </defs>
  <g
     inkscape:label="Layer 1"
     inkscape:groupmode="layer"
     id="layer1">
    <path
       style="fill:#78828e;fill-opacity:1;stroke:none;stroke-width:0.210331px;stroke-linecap:butt;stroke-linejoin:miter;stroke-opacity:1"
       d="m 135.46667,39.647617 c -3.68785,0 -16.71383,42.493158 -16.71383,51.614079 v 88.670344 c 0,13.79666 16.71383,62.20158 16.71383,62.20158 0,0 16.71382,-49.25117 16.71382,-62.20158 V 91.261696 c 0,-9.04774 -13.02597,-51.614079 -16.71382,-51.614079 z"
       id="path55569"
       sodipodi:nodetypes="zzzczzz" />
    <path
       style="fill:#ee6428;fill-opacity:1;stroke:none;stroke-width:0.210331px;stroke-linecap:butt;stroke-linejoin:miter;stroke-opacity:1"
       d="m 135.46667,39.647617 c -3.5152,-0.0011 -12.08096,30.137118 -12.08096,30.137118 l 24.14142,0 c 0,0 -8.54526,-30.136064 -12.06046,-30.137118 z"
       id="path55889"
       sodipodi:nodetypes="zccz" />
    <g
       id="g65009">
      <path
         style="fill:#b2afa6;stroke:none;stroke-width:0.264583px;stroke-linecap:butt;stroke-linejoin:miter;stroke-opacity:1;fill-opacity:1"
         d="m 152.13924,90.267304 c 0,0 95.65137,44.207806 101.65856,54.760016 6.00719,10.55221 5.14292,26.77427 -1.11559,26.77427 -6.25851,0 -100.49504,-15.89068 -100.49504,-15.89068"
         id="path57319"
         sodipodi:nodetypes="czzc" />
      <g
         id="g64981"
         clip-path="url(#clipPath64998)">
        <path
           style="fill:none;stroke:#4d5a6a;stroke-width:2.56500002;stroke-linecap:butt;stroke-linejoin:miter;stroke-opacity:1;stroke-miterlimit:4;stroke-dasharray:none"
           d="M 162.59793,90.363174 V 162.31904"
           id="path60539" />
        <path
           style="fill:#806640;stroke:none;stroke-width:0.264583px;stroke-linecap:butt;stroke-linejoin:miter;stroke-opacity:1;fill-opacity:1"
           d="m 208.47677,114.90626 -30.46659,52.76968 37.16016,5.1018 25.92532,-44.90398 z"
           id="path64840" />
        <path
           style="fill:none;stroke:#4d5a6a;stroke-width:2.56500002;stroke-linecap:butt;stroke-linejoin:miter;stroke-opacity:1;stroke-miterlimit:4;stroke-dasharray:none"
           d="m 176.12452,161.76124 v -6.55412 l 28.58712,5.02018 v 6.69356"
           id="path61432" />
        <path
           style="fill:none;stroke:#4d5a6a;stroke-width:2.565;stroke-linecap:butt;stroke-linejoin:miter;stroke-miterlimit:4;stroke-dasharray:none;stroke-opacity:1"
           d="m 216.28593,168.87315 v -6.55412 l 28.58712,5.02018 v 6.69356"
           id="path62795"
           sodipodi:nodetypes="cccc" />
        <path
           style="fill:none;stroke:#4d5a6a;stroke-width:2.56500002;stroke-linecap:butt;stroke-linejoin:miter;stroke-opacity:1;stroke-miterlimit:4;stroke-dasharray:none"
           d="M 244.87305,167.33921 V 133.17412"
           id="path63305" />
      </g>
    </g>
    <g
       id="g65025"
       transform="matrix(-1,0,0,1,270.95237,0)">
      <path
         style="fill:#b2afa6;fill-opacity:1;stroke:none;stroke-width:0.264583px;stroke-linecap:butt;stroke-linejoin:miter;stroke-opacity:1"
         d="m 152.13924,90.267304 c 0,0 95.65137,44.207806 101.65856,54.760016 6.00719,10.55221 5.14292,26.77427 -1.11559,26.77427 -6.25851,0 -100.49504,-15.89068 -100.49504,-15.89068"
         id="path65011"
         sodipodi:nodetypes="czzc" />
      <g
         id="g65023"
         clip-path="url(#clipPath64998)">
        <path
           style="fill:none;stroke:#4d5a6a;stroke-width:2.565;stroke-linecap:butt;stroke-linejoin:miter;stroke-miterlimit:4;stroke-dasharray:none;stroke-opacity:1"
           d="M 162.59793,90.363174 V 162.31904"
           id="path65013" />
        <path
           style="fill:#806640;fill-opacity:1;stroke:none;stroke-width:0.264583px;stroke-linecap:butt;stroke-linejoin:miter;stroke-opacity:1"
           d="m 208.47677,114.90626 -30.46659,52.76968 37.16016,5.1018 25.92532,-44.90398 z"
           id="path65015" />
        <path
           style="fill:none;stroke:#4d5a6a;stroke-width:2.565;stroke-linecap:butt;stroke-linejoin:miter;stroke-miterlimit:4;stroke-dasharray:none;stroke-opacity:1"
           d="m 176.12452,161.76124 v -6.55412 l 28.58712,5.02018 v 6.69356"
           id="path65017" />
        <path
           style="fill:none;stroke:#4d5a6a;stroke-width:2.565;stroke-linecap:butt;stroke-linejoin:miter;stroke-miterlimit:4;stroke-dasharray:none;stroke-opacity:1"
           d="m 216.28593,168.87315 v -6.55412 l 28.58712,5.02018 v 6.69356"
           id="path65019"
           sodipodi:nodetypes="cccc" />
        <path
           style="fill:none;stroke:#4d5a6a;stroke-width:2.565;stroke-linecap:butt;stroke-linejoin:miter;stroke-miterlimit:4;stroke-dasharray:none;stroke-opacity:1"
           d="M 244.87305,167.33921 V 133.17412"
           id="path65021" />
      </g>
    </g>
    <rect
       style="fill:#806640;fill-opacity:1;stroke:none;stroke-width:2.565;stroke-linecap:round;stroke-miterlimit:4;stroke-dasharray:none;stroke-opacity:1"
       id="rect65579"
       width="54.106346"
       height="23.985287"
       x="108.49159"
       y="127.4567"
       clip-path="url(#clipPath65681)" />
    <path
       style="fill:#4e5d70;fill-opacity:1;stroke:none;stroke-width:0.210331px;stroke-linecap:butt;stroke-linejoin:miter;stroke-opacity:1"
       d="m 118.75284,179.93204 c -0.75236,12.62151 16.71383,62.20158 16.71383,62.20158 0,0 17.21438,-48.10098 16.71382,-62.20158 z"
       id="path66381"
       sodipodi:nodetypes="cccc" />
    <path
       style="fill:#aa8582;fill-opacity:1;stroke:none;stroke-width:0.132967px;stroke-linecap:butt;stroke-linejoin:miter;stroke-opacity:1"
       d="m 123.73677,184.1157 c -0.52793,7.18858 11.72797,35.42695 11.72797,35.42695 0,0 12.07921,-27.39595 11.72797,-35.42695 z"
       id="path69200"
       sodipodi:nodetypes="cccc" />
    <rect
       style="fill:#91accf;fill-opacity:1;stroke:none;stroke-width:2.565;stroke-linecap:round;stroke-miterlimit:4;stroke-dasharray:none;stroke-opacity:1"
       id="rect67037"
       width="5.12749"
       height="49.894421"
       x="132.72311"
       y="195.83067" />
    <ellipse
       style="fill:#2a2a2a;fill-opacity:1;stroke:#000000;stroke-width:0.7127875;stroke-linecap:round;stroke-miterlimit:4;stroke-dasharray:none;stroke-opacity:1"
       id="path67357"
       cx="135.46667"
       cy="96.498947"
       rx="12.550378"
       ry="20.307039" />
    <ellipse
       style="fill:#ffffff;fill-opacity:1;stroke:none;stroke-width:0.367428;stroke-linecap:round;stroke-miterlimit:4;stroke-dasharray:none;stroke-opacity:1"
       id="ellipse67907"
       cx="82.680679"
       cy="143.65599"
       rx="1.7978075"
       ry="2.9089282"
       transform="rotate(-29.087539)" />
    <rect
       style="fill:#2a2a2a;fill-opacity:1;stroke:#000000;stroke-width:0.712788;stroke-linecap:round;stroke-miterlimit:4;stroke-dasharray:none;stroke-opacity:1"
       id="rect68502"
       width="10.667874"
       height="3.7651322"
       x="122.43652"
       y="122.15762"
       rx="1.3944935"
       ry="1.3944935" />
    <ellipse
       style="fill:#ffffff;fill-opacity:1;stroke:none;stroke-width:0.712788;stroke-linecap:round;stroke-miterlimit:4;stroke-dasharray:none;stroke-opacity:1"
       id="path68606"
       cx="131.44122"
       cy="123.45419"
       rx="0.78884465"
       ry="0.59163344" />
    <rect
       style="fill:#2a2a2a;fill-opacity:1;stroke:#000000;stroke-width:0.712788;stroke-linecap:round;stroke-miterlimit:4;stroke-dasharray:none;stroke-opacity:1"
       id="rect68776"
       width="10.667874"
       height="3.7651322"
       x="137.42458"
       y="122.15762"
       rx="1.3944935"
       ry="1.3944935" />
    <ellipse
       style="fill:#ffffff;fill-opacity:1;stroke:none;stroke-width:0.712788;stroke-linecap:round;stroke-miterlimit:4;stroke-dasharray:none;stroke-opacity:1"
       id="ellipse68778"
       cx="146.42928"
       cy="123.45419"
       rx="0.78884465"
       ry="0.59163344" />
    <ellipse
       style="fill:#ffffff;fill-opacity:1;stroke:none;stroke-width:0.712788;stroke-linecap:round;stroke-miterlimit:4;stroke-dasharray:none;stroke-opacity:1"
       id="path69828"
       cx="112.78981"
       cy="92.70034"
       rx="2.5100882"
       ry="4.462379"
       transform="rotate(-19.769839)" />
  </g>
</svg>
