<?xml version="1.0" encoding="UTF-8" standalone="no"?>
<!-- Created with Inkscape (http://www.inkscape.org/) -->

<svg
   width="1024"
   height="1024"
   viewBox="0 0 270.93333 270.93334"
   version="1.1"
   id="svg5"
   inkscape:version="1.1 (c68e22c387, 2021-05-23)"
   sodipodi:docname="basic-follow-missile-upgrade-2.svg"
   inkscape:export-filename="D:\Repos\Save the bit\Save the bit\Assets\2D\Enemies\basic-follow-missile-upgrade-2.png"
   inkscape:export-xdpi="96"
   inkscape:export-ydpi="96"
   xmlns:inkscape="http://www.inkscape.org/namespaces/inkscape"
   xmlns:sodipodi="http://sodipodi.sourceforge.net/DTD/sodipodi-0.dtd"
   xmlns:xlink="http://www.w3.org/1999/xlink"
   xmlns="http://www.w3.org/2000/svg"
   xmlns:svg="http://www.w3.org/2000/svg">
  <sodipodi:namedview
     id="namedview7"
     pagecolor="#505050"
     bordercolor="#eeeeee"
     borderopacity="1"
     inkscape:pageshadow="0"
     inkscape:pageopacity="0"
     inkscape:pagecheckerboard="0"
     inkscape:document-units="px"
     showgrid="false"
     units="px"
     width="1024px"
     inkscape:zoom="0.55525277"
     inkscape:cx="579.01557"
     inkscape:cy="375.50465"
     inkscape:window-width="1920"
     inkscape:window-height="1057"
     inkscape:window-x="1912"
     inkscape:window-y="-8"
     inkscape:window-maximized="1"
     inkscape:current-layer="layer1" />
  <defs
     id="defs2">
    <linearGradient
       inkscape:collect="always"
       id="linearGradient8684">
      <stop
         style="stop-color:#df0018;stop-opacity:1"
         offset="0"
         id="stop8680" />
      <stop
         style="stop-color:#e3a700;stop-opacity:1"
         offset="0.1"
         id="stop9550" />
      <stop
         style="stop-color:#ffe400;stop-opacity:1"
         offset="1"
         id="stop8682" />
    </linearGradient>
    <radialGradient
       inkscape:collect="always"
       xlink:href="#linearGradient8684"
       id="radialGradient8686"
       cx="135.46667"
       cy="95.697327"
       fx="135.46667"
       fy="95.697327"
       r="23.8125"
       gradientTransform="matrix(13.03807,0,0,9.2675257,-1630.7573,-868.7783)"
       gradientUnits="userSpaceOnUse" />
    <clipPath
       clipPathUnits="userSpaceOnUse"
       id="clipPath22635">
      <path
         style="fill:url(#radialGradient22639);fill-opacity:1;stroke:none;stroke-width:0.264583px;stroke-linecap:butt;stroke-linejoin:miter;stroke-opacity:1"
         d="m 135.46667,19.528715 c 0,0 -13.22917,29.84917 -13.22917,39.687857 v 92.603818 c 0,0 -11.00302,15.77093 -10.58333,18.52083 0,0 6.05907,49.98712 7.9375,52.00878 l 3.36662,-3e-5 1.85424,3.09724 h 21.05965 l 1.99927,-3.09725 3.47022,-2e-5 c 1.91462,-2.61131 7.9375,-52.00872 7.9375,-52.00872 0.38155,-2.50005 -10.58334,-18.52083 -10.58334,-18.52083 V 59.216572 c 0,-9.138018 -13.22916,-39.687857 -13.22916,-39.687857 z"
         id="path22637"
         sodipodi:nodetypes="czcsccccccsczc" />
    </clipPath>
    <radialGradient
       inkscape:collect="always"
       xlink:href="#linearGradient8684"
       id="radialGradient22639"
       gradientUnits="userSpaceOnUse"
       gradientTransform="matrix(13.03807,0,0,9.2675258,-1630.7573,-867.34877)"
       cx="135.46667"
       cy="95.697327"
       fx="135.46667"
       fy="95.697327"
       r="23.8125" />
  </defs>
  <g
     inkscape:label="Layer 1"
     inkscape:groupmode="layer"
     id="layer1">
    <path
       style="fill:url(#radialGradient8686);fill-opacity:1;stroke:none;stroke-width:0.264583px;stroke-linecap:butt;stroke-linejoin:miter;stroke-opacity:1"
       d="m 135.46667,18.099186 c 0,0 -13.22917,29.849169 -13.22917,39.687856 v 92.603818 c 0,0 -11.00302,15.77093 -10.58333,18.52083 0,0 6.05907,49.98712 7.9375,52.00878 l 3.36662,-3e-5 1.85424,3.09724 h 21.05965 l 1.99927,-3.09725 3.47022,-2e-5 c 1.91462,-2.61131 7.9375,-52.00872 7.9375,-52.00872 0.38155,-2.50005 -10.58334,-18.52083 -10.58334,-18.52083 V 57.787042 c 0,-9.138018 -13.22916,-39.687856 -13.22916,-39.687856 z"
       id="path854"
       sodipodi:nodetypes="czcsccccccsczc" />
    <g
       id="g18330"
       clip-path="url(#clipPath22635)"
       transform="translate(0,-1.4295291)">
      <path
         style="fill:none;fill-opacity:1;stroke:#df1415;stroke-width:1.905;stroke-linecap:butt;stroke-linejoin:miter;stroke-miterlimit:4;stroke-dasharray:none;stroke-opacity:1"
         d="m 117.25625,77.833888 10.10829,10.108298 v 27.292404 l -8.46386,14.65983"
         id="path14749" />
      <path
         style="fill:none;fill-opacity:1;stroke:#df1415;stroke-width:1.905;stroke-linecap:butt;stroke-linejoin:miter;stroke-miterlimit:4;stroke-dasharray:none;stroke-opacity:1"
         d="m 153.9251,77.833888 -10.10829,10.108298 v 27.292404 l 8.46386,14.65983"
         id="path17967" />
      <path
         style="fill:none;fill-opacity:1;stroke:#df1415;stroke-width:1.905;stroke-linecap:butt;stroke-linejoin:miter;stroke-miterlimit:4;stroke-dasharray:none;stroke-opacity:1"
         d="m 108.66197,153.02361 10.10829,10.1083 v 27.2924 l -8.46386,14.65983"
         id="path17969" />
      <path
         style="fill:none;fill-opacity:1;stroke:#df1415;stroke-width:1.905;stroke-linecap:butt;stroke-linejoin:miter;stroke-miterlimit:4;stroke-dasharray:none;stroke-opacity:1"
         d="m 162.17798,153.02361 -10.10829,10.1083 v 27.2924 l 8.46386,14.65983"
         id="path18324" />
    </g>
  </g>
</svg>
