<?xml version="1.0" encoding="UTF-8" standalone="no"?>
<!-- Created with Inkscape (http://www.inkscape.org/) -->

<svg
   width="1024"
   height="1024"
   viewBox="0 0 270.93333 270.93334"
   version="1.1"
   id="svg13142"
   inkscape:version="1.1 (c68e22c387, 2021-05-23)"
   sodipodi:docname="Icons.svg"
   inkscape:export-filename="D:\Repos\Save the bit\Save the bit\Assets\2D\UI\Icons.png"
   inkscape:export-xdpi="96"
   inkscape:export-ydpi="96"
   xmlns:inkscape="http://www.inkscape.org/namespaces/inkscape"
   xmlns:sodipodi="http://sodipodi.sourceforge.net/DTD/sodipodi-0.dtd"
   xmlns="http://www.w3.org/2000/svg"
   xmlns:svg="http://www.w3.org/2000/svg">
  <sodipodi:namedview
     id="namedview13144"
     pagecolor="#505050"
     bordercolor="#eeeeee"
     borderopacity="1"
     inkscape:pageshadow="0"
     inkscape:pageopacity="0"
     inkscape:pagecheckerboard="0"
     inkscape:document-units="px"
     showgrid="false"
     inkscape:zoom="0.67081229"
     inkscape:cx="357.7752"
     inkscape:cy="561.25984"
     inkscape:window-width="1920"
     inkscape:window-height="1057"
     inkscape:window-x="-8"
     inkscape:window-y="-8"
     inkscape:window-maximized="1"
     inkscape:current-layer="layer1"
     units="px"
     width="1024px" />
  <defs
     id="defs13139" />
  <g
     inkscape:label="Layer 1"
     inkscape:groupmode="layer"
     id="layer1">
    <circle
       style="fill:#ffffff;fill-opacity:1;stroke-width:0.613595;stroke-linecap:round;stroke-opacity:0"
       id="path13227"
       cx="33.866661"
       cy="33.866669"
       r="33.866669" />
    <path
       sodipodi:type="star"
       style="fill:#ffffff;fill-opacity:1;stroke-width:5.91496;stroke-linecap:round;stroke-opacity:0"
       id="path13421"
       inkscape:flatsided="true"
       sodipodi:sides="3"
       sodipodi:cx="377.15469"
       sodipodi:cy="87.953072"
       sodipodi:r1="149.05064"
       sodipodi:r2="74.525314"
       sodipodi:arg1="2.0943951"
       sodipodi:arg2="3.1415927"
       inkscape:rounded="0"
       inkscape:randomized="0"
       d="m 302.62937,217.03472 0,-258.163292 223.57597,129.081643 z"
       transform="matrix(0.19124885,0,0,0.19124885,16.61462,18.677085)"
       inkscape:transform-center-x="-7.1264406" />
    <g
       style="fill:none;stroke:#ffffff;stroke-width:2;stroke-linecap:round;stroke-linejoin:round;stroke-opacity:1"
       id="g13572"
       transform="matrix(2.8174288,0,0,2.8207196,121.12554,0.71914897)">
      <circle
         cx="12"
         cy="12"
         r="3"
         id="circle13560"
         style="stroke:#ffffff;stroke-opacity:1" />
      <path
         d="m 19.4,15 a 1.65,1.65 0 0 0 0.33,1.82 l 0.06,0.06 a 2,2 0 0 1 0,2.83 2,2 0 0 1 -2.83,0 L 16.9,19.65 a 1.65,1.65 0 0 0 -1.82,-0.33 1.65,1.65 0 0 0 -1,1.51 V 21 a 2,2 0 0 1 -2,2 2,2 0 0 1 -2,-2 V 20.91 A 1.65,1.65 0 0 0 9,19.4 1.65,1.65 0 0 0 7.18,19.73 l -0.06,0.06 a 2,2 0 0 1 -2.83,0 2,2 0 0 1 0,-2.83 L 4.35,16.9 a 1.65,1.65 0 0 0 0.33,-1.82 1.65,1.65 0 0 0 -1.51,-1 H 3 a 2,2 0 0 1 -2,-2 2,2 0 0 1 2,-2 H 3.09 A 1.65,1.65 0 0 0 4.6,9 1.65,1.65 0 0 0 4.27,7.18 L 4.21,7.12 a 2,2 0 0 1 0,-2.83 2,2 0 0 1 2.83,0 L 7.1,4.35 A 1.65,1.65 0 0 0 8.92,4.68 H 9 A 1.65,1.65 0 0 0 10,3.17 V 3 a 2,2 0 0 1 2,-2 2,2 0 0 1 2,2 v 0.09 a 1.65,1.65 0 0 0 1,1.51 1.65,1.65 0 0 0 1.82,-0.33 l 0.06,-0.06 a 2,2 0 0 1 2.83,0 2,2 0 0 1 0,2.83 L 19.65,7.1 A 1.65,1.65 0 0 0 19.32,8.92 V 9 a 1.65,1.65 0 0 0 1.51,1 H 21 a 2,2 0 0 1 2,2 2,2 0 0 1 -2,2 h -0.09 a 1.65,1.65 0 0 0 -1.51,1 z"
         id="path13562"
         style="stroke:#ffffff;stroke-opacity:1" />
    </g>
    <g
       style="fill:none;stroke:#ffffff;stroke-width:2;stroke-linecap:round;stroke-linejoin:round;stroke-opacity:1"
       id="g13637"
       transform="matrix(2.8222247,0,0,2.8222247,192.8529,5.6345824)">
      <circle
         cx="9"
         cy="21"
         r="1"
         id="circle13622"
         style="stroke:#ffffff;stroke-opacity:1" />
      <circle
         cx="20"
         cy="21"
         r="1"
         id="circle13624"
         style="stroke:#ffffff;stroke-opacity:1" />
      <path
         d="m 1,1 h 4 l 2.68,13.39 a 2,2 0 0 0 2,1.61 h 9.72 a 2,2 0 0 0 2,-1.61 L 23,6 H 6"
         id="path13626"
         style="stroke:#ffffff;stroke-opacity:1" />
    </g>
    <g
       style="fill:none;stroke:#ffffff;stroke-width:2;stroke-linecap:round;stroke-linejoin:round;stroke-opacity:1"
       id="g13733"
       transform="matrix(2.8222331,0,0,2.8222331,-7.0948422,71.96246)">
      <circle
         cx="12"
         cy="8"
         r="7"
         id="circle13721"
         style="stroke:#ffffff;stroke-opacity:1" />
      <polyline
         points="8.21 13.89 7 23 12 20 17 23 15.79 13.88"
         id="polyline13723"
         style="stroke:#ffffff;stroke-opacity:1" />
    </g>
  </g>
</svg>
